<?xml version="1.0" encoding="UTF-8"?>
<svg width="176.38mm" height="47.469mm" version="1.1" viewBox="0 0 176.38 47.469" xmlns="http://www.w3.org/2000/svg" xmlns:cc="http://creativecommons.org/ns#" xmlns:dc="http://purl.org/dc/elements/1.1/" xmlns:rdf="http://www.w3.org/1999/02/22-rdf-syntax-ns#">
 <metadata>
  <rdf:RDF>
   <cc:Work rdf:about="">
    <dc:format>image/svg+xml</dc:format>
    <dc:type rdf:resource="http://purl.org/dc/dcmitype/StillImage"/>
    <dc:title/>
   </cc:Work>
  </rdf:RDF>
 </metadata>
 <g transform="translate(-7.8039 -98.73)">
  <rect x="8.1039" y="99.03" width="120.88" height="46.869" rx="3.0068" ry="1.2951" fill-rule="evenodd" opacity=".92604" stroke-opacity="0" style="paint-order:markers stroke fill"/>
  <path d="m14.058 108.86v24.701h4.4763v-10.094h15.718v10.094h4.4763v-24.701h-4.4763v10.094h-15.718v-10.094zm32.073 0c-0.32136 0-0.61959 0.0572-0.89504 0.17208-0.27545 0.11484-0.51647 0.27595-0.72306 0.48266-0.19511 0.20671-0.35005 0.44786-0.46483 0.72347-0.11476 0.27561-0.17198 0.56844-0.17198 0.8785v16.158c0 1.1598 0.20659 2.1417 0.61977 2.9456 0.42465 0.79237 0.94669 1.4408 1.5665 1.9461 0.63124 0.4938 1.3143 0.84996 2.0488 1.0682 0.73453 0.21819 1.4115 0.32712 2.0313 0.32712h16.149v-4.4783h-16.114c-0.59681 0-1.0505-0.15503-1.3604-0.46509-0.30988-0.31006-0.46483-0.75792-0.46483-1.3436v-13.936h17.939v-4.4788zm26.754 0c-0.32136 0-0.62011 0.0572-0.89556 0.17208-0.27544 0.11484-0.51647 0.27595-0.72306 0.48266-0.19511 0.20671-0.35005 0.44786-0.46482 0.72347-0.11478 0.27561-0.17199 0.56844-0.17199 0.8785v22.445h4.4763v-20.223h14.771c0.09185 0 0.18903 6e-3 0.29232 0.0171 0.11476 0.0115 0.21807 0.0515 0.30988 0.12041 0.10329 0.0574 0.18381 0.1552 0.24119 0.293 0.06886 0.12632 0.10329 0.3158 0.10329 0.56844v2.8252c0 0.58567-0.09165 1.108-0.27528 1.5674-0.18364 0.44786-0.44795 0.83239-0.79226 1.1539-0.33284 0.32155-0.73436 0.57993-1.2049 0.77515-0.45908 0.18374-0.96999 0.29875-1.5324 0.34468h-10.123v4.4788h3.2197l9.3306 8.0786h6.9207l-9.3481-8.0786c0.55091 0 1.1362-0.0633 1.756-0.18965 0.63125-0.12632 1.251-0.32746 1.8593-0.60307 0.61976-0.28709 1.2112-0.64882 1.7736-1.0852 0.56238-0.43638 1.0556-0.95872 1.4802-1.5674 0.43613-0.62012 0.78045-1.3319 1.0329-2.1358 0.2525-0.80385 0.3791-1.7168 0.3791-2.7388v-2.8598c0-0.55122-0.09775-1.1424-0.29284-1.774-0.18364-0.6316-0.49352-1.2173-0.92965-1.757-0.42465-0.55122-0.98112-1.0046-1.6698-1.3606-0.68863-0.36748-1.5322-0.55139-2.5307-0.55139zm38.821 0c-1.779 0-3.42 0.30449-4.9235 0.91312-1.5035 0.60864-2.8063 1.4582-3.9082 2.5492-1.1018 1.091-1.9626 2.3945-2.5824 3.9104-0.61977 1.5158-0.92965 3.175-0.92965 4.978v12.351h4.4763v-6.0632h15.735v6.0632h4.4758v-6.0477h54.346c2.0927 0 3.7775-0.48705 3.7775-1.0919v-1.6402c0-0.60487-1.6848-1.0914-3.7775-1.0914h-54.346v-12.573c0-0.31006-0.0573-0.60289-0.17199-0.8785-0.11477-0.27561-0.27528-0.51676-0.48187-0.72347-0.20658-0.20671-0.44761-0.36782-0.72306-0.48266-0.27545-0.11483-0.56812-0.17208-0.878-0.17208zm0 4.4788h7.8679v9.6805h-15.735v-1.8087c0-1.2517 0.17215-2.3141 0.51647-3.1869 0.35579-0.88424 0.8034-1.6188 1.3428-2.2045 0.53942-0.58567 1.1303-1.0452 1.773-1.3782 0.64273-0.33302 1.2514-0.57975 1.8252-0.74052 0.58532-0.16077 1.0957-0.25855 1.5318-0.293 0.44761-0.0459 0.74028-0.0687 0.878-0.0687zm-61.563 5.6152v4.5134h14.134v-4.5134z" fill="#ff7f2a"/>
  <text transform="scale(.99972 1.0003)" x="129.23027" y="122.4296" fill="#ff6600" font-family="sans-serif" font-size="27.517px" stroke-width=".26458" style="line-height:1.25" xml:space="preserve"><tspan x="129.23027" y="122.4296" fill="#ff6600" font-family="Audiowide" font-size="27.517px" stroke-width=".26458">una</tspan></text>
 </g>
</svg>
